<svg xmlns="http://www.w3.org/2000/svg" width="24" height="24" viewBox="0 0 24 24"><g fill="currentColor"><path d="M 5.242188 2.914062 C 7.976562 4.964844 10.921875 9.125 12 11.363281 C 13.078125 9.132812 16.023438 4.96875 18.757812 2.914062 C 20.734375 1.433594 23.929688 0.289062 23.929688 3.9375 C 23.929688 4.664062 23.511719 10.054688 23.269531 10.929688 C 22.414062 13.96875 19.3125 14.746094 16.550781 14.273438 C 21.375 15.09375 22.601562 17.8125 19.949219 20.53125 C 14.914062 25.695312 12.71875 19.238281 12.15625 17.582031 C 12.074219 17.351562 12.03125 17.21875 12 17.21875 C 11.96875 17.21875 11.925781 17.359375 11.84375 17.582031 C 11.28125 19.238281 9.078125 25.695312 4.050781 20.53125 C 1.402344 17.8125 2.625 15.09375 7.449219 14.273438 C 4.6875 14.746094 1.585938 13.96875 0.734375 10.925781 C 0.488281 10.050781 0.0703125 4.660156 0.0703125 3.933594 C 0.0703125 0.285156 3.265625 1.429688 5.242188 2.910156 Z M 5.242188 2.914062 "/></g></svg>
