<svg xmlns="http://www.w3.org/2000/svg" width="24" height="24" viewBox="0 0 24 24"><g fill="currentColor"><path d="M 2.25 3 C 1.007812 3 0 4.007812 0 5.25 C 0 5.957031 0.332031 6.625 0.898438 7.050781 L 11.101562 14.699219 C 11.632812 15.097656 12.367188 15.097656 12.898438 14.699219 L 23.101562 7.050781 C 23.667969 6.625 24 5.957031 24 5.25 C 24 4.007812 22.992188 3 21.75 3 Z M 0 8.25 L 0 18 C 0 19.65625 1.34375 21 3 21 L 21 21 C 22.65625 21 24 19.65625 24 18 L 24 8.25 L 13.800781 15.898438 C 12.730469 16.703125 11.269531 16.703125 10.199219 15.898438 Z M 0 8.25 "/></g></svg>
