<?xml version="1.0" encoding="UTF-8"?>
<svg xmlns="http://www.w3.org/2000/svg" xmlns:xlink="http://www.w3.org/1999/xlink" width="24" height="24" viewBox="0 0 24 24">
<path fill-rule="nonzero" fill="rgb(0%, 0%, 0%)" fill-opacity="1" d="M 0 3 C 0 2.171875 0.765625 1.5 1.714844 1.5 C 14.023438 1.5 24 10.226562 24 21 C 24 21.828125 23.234375 22.5 22.285156 22.5 C 21.335938 22.5 20.570312 21.828125 20.570312 21 C 20.570312 11.886719 12.128906 4.5 1.714844 4.5 C 0.765625 4.5 0 3.828125 0 3 Z M 0 19.5 C 0 17.84375 1.535156 16.5 3.429688 16.5 C 5.320312 16.5 6.855469 17.84375 6.855469 19.5 C 6.855469 21.15625 5.320312 22.5 3.429688 22.5 C 1.535156 22.5 0 21.15625 0 19.5 Z M 1.714844 7.5 C 10.238281 7.5 17.144531 13.542969 17.144531 21 C 17.144531 21.828125 16.375 22.5 15.429688 22.5 C 14.480469 22.5 13.714844 21.828125 13.714844 21 C 13.714844 15.203125 8.339844 10.5 1.714844 10.5 C 0.765625 10.5 0 9.828125 0 9 C 0 8.171875 0.765625 7.5 1.714844 7.5 Z M 1.714844 7.5 "/>
</svg>

<svg xmlns="http://www.w3.org/2000/svg" width="24" height="24" viewBox="0 0 24 24"><g fill="currentColor"><path d="M 0 3 C 0 2.171875 0.765625 1.5 1.714844 1.5 C 14.023438 1.5 24 10.226562 24 21 C 24 21.828125 23.234375 22.5 22.285156 22.5 C 21.335938 22.5 20.570312 21.828125 20.570312 21 C 20.570312 11.886719 12.128906 4.5 1.714844 4.5 C 0.765625 4.5 0 3.828125 0 3 Z M 0 19.5 C 0 17.84375 1.535156 16.5 3.429688 16.5 C 5.320312 16.5 6.855469 17.84375 6.855469 19.5 C 6.855469 21.15625 5.320312 22.5 3.429688 22.5 C 1.535156 22.5 0 21.15625 0 19.5 Z M 1.714844 7.5 C 10.238281 7.5 17.144531 13.542969 17.144531 21 C 17.144531 21.828125 16.375 22.5 15.429688 22.5 C 14.480469 22.5 13.714844 21.828125 13.714844 21 C 13.714844 15.203125 8.339844 10.5 1.714844 10.5 C 0.765625 10.5 0 9.828125 0 9 C 0 8.171875 0.765625 7.5 1.714844 7.5 Z M 1.714844 7.5 "/></g></svg>
