<svg xmlns="http://www.w3.org/2000/svg" width="24" height="24" viewBox="0 0 24 24"><g fill="currentColor"><path d="M 11.28125 0.277344 L 3.320312 7.941406 C 3.113281 8.136719 3 8.398438 3 8.667969 C 3 9.265625 3.550781 9.75 4.238281 9.75 L 5.570312 9.75 L 1.640625 13.191406 C 1.414062 13.386719 1.285156 13.660156 1.285156 13.941406 C 1.285156 14.527344 1.828125 15 2.496094 15 L 4.285156 15 L 0.289062 19.195312 C 0.101562 19.390625 0 19.640625 0 19.898438 C 0 20.507812 0.5625 21 1.257812 21 L 10.285156 21 L 10.285156 22.5 C 10.285156 23.328125 11.050781 24 12 24 C 12.949219 24 13.714844 23.328125 13.714844 22.5 L 13.714844 21 L 22.742188 21 C 23.4375 21 24 20.507812 24 19.898438 C 24 19.640625 23.898438 19.390625 23.710938 19.195312 L 19.714844 15 L 21.503906 15 C 22.171875 15 22.714844 14.527344 22.714844 13.941406 C 22.714844 13.660156 22.585938 13.386719 22.359375 13.191406 L 18.429688 9.75 L 19.761719 9.75 C 20.441406 9.75 21 9.265625 21 8.667969 C 21 8.398438 20.886719 8.136719 20.679688 7.941406 L 12.71875 0.277344 C 12.535156 0.0976562 12.273438 0 12 0 C 11.726562 0 11.464844 0.0976562 11.28125 0.277344 Z M 11.28125 0.277344 "/></g></svg>
